<svg xmlns="http://www.w3.org/2000/svg" viewBox="111.29 542.40 221.57 47.55" preserveAspectRatio="xMidYMid meet"><g fill="#111"><path d="M 258.612 566.464 C 258.612 566.464 268.353 565.736 264.218 560.802 C 262.897 561.929 261.052 562.061 261.618 561.029 C 262.808 558.863 263.251 556.740 260.711 556.420 C 255.386 555.749 259.922 552.781 256.924 552.884 C 253.926 552.987 252.737 554.397 251.488 556.481 C 250.241 558.563 251.185 561.654 249.325 559.916 C 247.464 558.179 244.954 558.508 244.947 561.749 C 244.937 564.990 243.243 568.052 242.562 565.674 C 242.071 563.967 239.410 570.244 234.796 575.539 C 234.232 576.185 240.402 572.900 244.168 570.788 C 248.165 568.545 253.781 566.606 258.612 566.464 "/><path d="M 311.082 572.059 C 311.082 572.179 311.070 572.297 311.046 572.415 C 311.023 572.533 310.988 572.647 310.943 572.757 C 310.896 572.868 310.840 572.973 310.774 573.073 C 310.707 573.173 310.632 573.265 310.547 573.350 C 310.462 573.435 310.370 573.510 310.270 573.577 C 310.170 573.643 310.065 573.699 309.954 573.745 C 309.844 573.791 309.730 573.826 309.612 573.849 C 309.495 573.873 309.376 573.885 309.256 573.885 C 309.136 573.885 309.017 573.873 308.900 573.849 C 308.782 573.826 308.668 573.791 308.557 573.745 C 308.446 573.699 308.341 573.643 308.241 573.577 C 308.142 573.510 308.050 573.435 307.965 573.350 C 307.880 573.265 307.804 573.173 307.738 573.073 C 307.671 572.973 307.615 572.868 307.569 572.757 C 307.523 572.647 307.489 572.533 307.465 572.415 C 307.442 572.297 307.430 572.179 307.430 572.059 C 307.430 571.939 307.442 571.820 307.465 571.703 C 307.489 571.585 307.523 571.471 307.569 571.360 C 307.615 571.249 307.671 571.144 307.738 571.044 C 307.804 570.945 307.880 570.853 307.965 570.768 C 308.050 570.683 308.142 570.607 308.241 570.541 C 308.341 570.474 308.446 570.418 308.557 570.372 C 308.668 570.326 308.782 570.292 308.900 570.268 C 309.017 570.245 309.136 570.233 309.256 570.233 C 309.376 570.233 309.495 570.245 309.612 570.268 C 309.730 570.292 309.844 570.326 309.954 570.372 C 310.065 570.418 310.170 570.474 310.270 570.541 C 310.370 570.607 310.462 570.683 310.547 570.768 C 310.632 570.853 310.707 570.945 310.774 571.044 C 310.840 571.144 310.896 571.249 310.943 571.360 C 310.988 571.471 311.023 571.585 311.046 571.703 C 311.070 571.820 311.082 571.939 311.082 572.059 "/><path d="M 314.591 582.379 C 314.591 582.499 314.579 582.617 314.555 582.735 C 314.532 582.853 314.498 582.967 314.452 583.077 C 314.406 583.188 314.350 583.293 314.283 583.392 C 314.217 583.492 314.141 583.584 314.056 583.669 C 313.971 583.754 313.880 583.829 313.780 583.896 C 313.680 583.962 313.575 584.019 313.464 584.064 C 313.354 584.110 313.240 584.145 313.122 584.168 C 313.005 584.192 312.886 584.203 312.766 584.203 C 312.647 584.203 312.528 584.192 312.411 584.168 C 312.293 584.145 312.179 584.110 312.068 584.064 C 311.958 584.019 311.853 583.962 311.753 583.896 C 311.654 583.829 311.561 583.754 311.477 583.669 C 311.392 583.584 311.316 583.492 311.250 583.392 C 311.183 583.293 311.127 583.188 311.081 583.077 C 311.035 582.967 311.001 582.853 310.977 582.735 C 310.954 582.617 310.942 582.499 310.942 582.379 C 310.942 582.259 310.954 582.140 310.977 582.023 C 311.001 581.906 311.035 581.792 311.081 581.681 C 311.127 581.570 311.183 581.465 311.250 581.365 C 311.316 581.266 311.392 581.174 311.477 581.089 C 311.561 581.004 311.654 580.929 311.753 580.862 C 311.853 580.796 311.958 580.740 312.068 580.694 C 312.179 580.648 312.293 580.613 312.411 580.590 C 312.528 580.567 312.647 580.555 312.766 580.555 C 312.886 580.555 313.005 580.567 313.122 580.590 C 313.240 580.613 313.354 580.648 313.464 580.694 C 313.575 580.740 313.680 580.796 313.780 580.862 C 313.880 580.929 313.971 581.004 314.056 581.089 C 314.141 581.174 314.217 581.266 314.283 581.365 C 314.350 581.465 314.406 581.570 314.452 581.681 C 314.498 581.792 314.532 581.906 314.555 582.023 C 314.579 582.140 314.591 582.259 314.591 582.379 "/><path d="M 327.757 573.798 C 327.702 574.626 328.326 575.345 329.154 575.401 C 329.225 575.404 329.296 575.404 329.365 575.399 C 329.365 575.399 329.639 575.380 329.639 575.380 C 329.639 575.380 329.703 575.647 329.703 575.647 C 329.710 575.677 329.720 575.706 329.727 575.730 C 330.243 575.530 330.802 575.538 331.323 575.749 C 331.664 575.892 331.955 576.112 332.179 576.398 C 332.459 576.138 332.632 575.781 332.660 575.399 C 332.689 575.001 332.561 574.617 332.298 574.315 C 332.298 574.315 332.088 574.069 332.088 574.069 C 332.088 574.069 332.332 573.860 332.332 573.860 C 332.628 573.595 332.809 573.233 332.834 572.835 C 332.855 572.567 332.805 572.304 332.682 572.066 C 332.418 572.310 332.093 572.482 331.739 572.570 C 331.104 572.720 330.447 572.581 329.940 572.196 C 329.940 572.196 329.923 572.228 329.923 572.228 C 329.923 572.228 329.834 572.494 329.834 572.494 C 329.834 572.494 329.556 572.438 329.556 572.438 C 329.491 572.426 329.426 572.413 329.358 572.408 C 328.530 572.352 327.815 572.971 327.757 573.798 "/><path d="M 318.534 576.193 C 318.125 576.667 318.180 577.383 318.655 577.793 C 318.696 577.829 318.737 577.861 318.785 577.884 C 318.785 577.884 318.954 577.997 318.954 577.997 C 318.954 577.997 318.873 578.189 318.873 578.189 C 318.865 578.210 318.859 578.230 318.853 578.251 C 319.251 578.363 319.590 578.619 319.806 578.982 C 319.948 579.225 320.022 579.487 320.030 579.764 C 320.319 579.732 320.584 579.597 320.774 579.379 C 320.969 579.150 321.066 578.859 321.045 578.561 C 321.045 578.561 321.030 578.316 321.030 578.316 C 321.030 578.316 321.270 578.300 321.270 578.300 C 321.570 578.272 321.845 578.135 322.040 577.909 C 322.171 577.754 322.261 577.572 322.299 577.376 C 322.025 577.398 321.751 577.360 321.498 577.250 C 321.046 577.055 320.715 576.674 320.580 576.209 C 320.580 576.209 320.556 576.223 320.556 576.223 C 320.556 576.223 320.382 576.339 320.382 576.339 C 320.382 576.339 320.239 576.179 320.239 576.179 C 320.205 576.143 320.171 576.110 320.136 576.076 C 319.662 575.663 318.942 575.719 318.534 576.193 "/><path d="M 318.082 573.830 C 317.613 573.414 317.566 572.697 317.983 572.227 C 318.016 572.186 318.056 572.153 318.100 572.119 C 318.100 572.119 318.255 571.983 318.255 571.983 C 318.255 571.983 318.150 571.804 318.150 571.804 C 318.138 571.788 318.127 571.765 318.118 571.747 C 318.499 571.582 318.800 571.283 318.966 570.892 C 319.075 570.635 319.115 570.365 319.086 570.089 C 319.375 570.080 319.656 570.179 319.873 570.371 C 320.099 570.569 320.234 570.845 320.252 571.144 C 320.252 571.144 320.272 571.389 320.272 571.389 C 320.272 571.389 320.515 571.375 320.515 571.375 C 320.812 571.360 321.102 571.458 321.326 571.658 C 321.477 571.791 321.591 571.960 321.656 572.153 C 321.382 572.166 321.117 572.240 320.877 572.381 C 320.459 572.638 320.178 573.058 320.110 573.538 C 320.110 573.538 320.083 573.528 320.083 573.528 C 320.083 573.528 319.891 573.432 319.891 573.432 C 319.891 573.432 319.774 573.609 319.774 573.609 C 319.744 573.650 319.715 573.691 319.684 573.730 C 319.271 574.201 318.548 574.243 318.082 573.830 "/><path d="M 322.206 575.494 C 321.937 575.926 322.069 576.490 322.502 576.760 C 322.539 576.784 322.574 576.802 322.615 576.817 C 322.615 576.817 322.764 576.885 322.764 576.885 C 322.764 576.885 322.727 577.050 322.727 577.050 C 322.722 577.069 322.721 577.085 322.715 577.102 C 323.050 577.142 323.352 577.304 323.571 577.567 C 323.713 577.744 323.807 577.945 323.849 578.165 C 324.075 578.106 324.270 577.962 324.394 577.764 C 324.524 577.555 324.563 577.312 324.509 577.076 C 324.509 577.076 324.466 576.881 324.466 576.881 C 324.466 576.881 324.658 576.837 324.658 576.837 C 324.894 576.779 325.097 576.634 325.224 576.429 C 325.313 576.289 325.362 576.134 325.365 575.969 C 325.150 576.022 324.925 576.026 324.710 575.970 C 324.324 575.869 324.009 575.604 323.843 575.250 C 323.843 575.250 323.828 575.264 323.828 575.264 C 323.828 575.264 323.704 575.380 323.704 575.380 C 323.704 575.380 323.566 575.270 323.566 575.270 C 323.536 575.244 323.501 575.222 323.471 575.197 C 323.041 574.931 322.471 575.064 322.206 575.494 "/><path d="M 322.267 573.027 C 321.901 572.678 321.884 572.094 322.234 571.728 C 322.264 571.693 322.296 571.665 322.330 571.641 C 322.330 571.641 322.459 571.535 322.459 571.535 C 322.459 571.535 322.380 571.387 322.380 571.387 C 322.371 571.374 322.364 571.357 322.356 571.340 C 322.668 571.219 322.922 570.987 323.066 570.673 C 323.161 570.467 323.199 570.251 323.184 570.028 C 323.416 570.028 323.642 570.118 323.814 570.277 C 323.993 570.445 324.091 570.673 324.099 570.914 C 324.099 570.914 324.108 571.113 324.108 571.113 C 324.108 571.113 324.304 571.109 324.304 571.109 C 324.546 571.106 324.779 571.194 324.955 571.362 C 325.074 571.475 325.162 571.615 325.206 571.770 C 324.985 571.774 324.767 571.826 324.572 571.935 C 324.224 572.130 323.987 572.464 323.914 572.848 C 323.914 572.848 323.893 572.839 323.893 572.839 C 323.893 572.839 323.743 572.758 323.743 572.758 C 323.743 572.758 323.642 572.897 323.642 572.897 C 323.618 572.928 323.592 572.960 323.566 572.992 C 323.221 573.360 322.634 573.373 322.267 573.027 "/><path d="M 326.125 575.119 C 325.827 575.465 325.865 575.988 326.210 576.287 C 326.241 576.312 326.274 576.336 326.305 576.353 C 326.305 576.353 326.431 576.435 326.431 576.435 C 326.431 576.435 326.372 576.576 326.372 576.576 C 326.366 576.589 326.363 576.607 326.355 576.620 C 326.646 576.701 326.894 576.888 327.051 577.154 C 327.154 577.331 327.213 577.524 327.214 577.727 C 327.426 577.701 327.620 577.602 327.757 577.444 C 327.901 577.276 327.972 577.065 327.956 576.846 C 327.956 576.846 327.944 576.667 327.944 576.667 C 327.944 576.667 328.121 576.654 328.121 576.654 C 328.340 576.633 328.538 576.533 328.683 576.370 C 328.779 576.256 328.844 576.123 328.869 575.979 C 328.670 575.996 328.468 575.967 328.286 575.888 C 327.956 575.746 327.712 575.468 327.615 575.131 C 327.615 575.131 327.597 575.138 327.597 575.138 C 327.597 575.138 327.472 575.224 327.472 575.224 C 327.472 575.224 327.367 575.108 327.367 575.108 C 327.342 575.081 327.319 575.055 327.290 575.031 C 326.948 574.733 326.423 574.772 326.125 575.119 "/><path d="M 325.900 572.668 C 325.622 572.307 325.688 571.787 326.052 571.507 C 326.082 571.481 326.113 571.461 326.148 571.445 C 326.148 571.445 326.277 571.367 326.277 571.367 C 326.277 571.367 326.229 571.227 326.229 571.227 C 326.222 571.214 326.218 571.195 326.210 571.180 C 326.505 571.113 326.765 570.942 326.936 570.684 C 327.050 570.514 327.115 570.326 327.131 570.124 C 327.340 570.158 327.529 570.268 327.658 570.433 C 327.794 570.608 327.851 570.824 327.824 571.039 C 327.824 571.039 327.802 571.218 327.802 571.218 C 327.802 571.218 327.977 571.240 327.977 571.240 C 328.195 571.272 328.390 571.381 328.523 571.555 C 328.612 571.673 328.670 571.808 328.688 571.954 C 328.489 571.926 328.287 571.942 328.099 572.012 C 327.762 572.139 327.504 572.401 327.390 572.735 C 327.390 572.735 327.370 572.723 327.370 572.723 C 327.370 572.723 327.248 572.631 327.248 572.631 C 327.248 572.631 327.138 572.740 327.138 572.740 C 327.112 572.765 327.088 572.789 327.059 572.812 C 326.702 573.096 326.179 573.027 325.900 572.668 "/><path d="M 301.480 574.110 C 300.772 575.176 298.724 575.314 297.992 576.122 C 297.309 576.879 297.116 577.826 297.518 578.321 C 297.378 578.074 297.482 577.654 297.786 577.317 C 298.134 576.932 299.116 576.866 299.453 576.354 C 299.541 576.417 299.016 577.727 298.665 578.110 C 298.318 578.498 297.838 578.634 297.595 578.416 C 298.102 578.873 299.107 578.592 299.834 577.785 C 300.560 576.977 301.660 574.234 301.480 574.110 "/><path d="M 288.352 568.953 C 288.352 569.210 288.327 569.464 288.277 569.714 C 288.227 569.965 288.153 570.209 288.055 570.445 C 287.957 570.681 287.838 570.906 287.695 571.119 C 287.553 571.332 287.391 571.529 287.211 571.710 C 287.029 571.891 286.832 572.052 286.620 572.194 C 286.407 572.337 286.182 572.457 285.946 572.554 C 285.709 572.653 285.466 572.727 285.214 572.776 C 284.964 572.826 284.710 572.852 284.454 572.852 C 284.198 572.852 283.945 572.826 283.694 572.776 C 283.443 572.727 283.199 572.653 282.963 572.554 C 282.726 572.457 282.502 572.337 282.289 572.194 C 282.076 572.052 281.879 571.891 281.698 571.710 C 281.517 571.529 281.355 571.332 281.213 571.119 C 281.071 570.906 280.951 570.681 280.853 570.445 C 280.755 570.209 280.681 569.965 280.631 569.714 C 280.581 569.464 280.556 569.210 280.556 568.953 C 280.556 568.697 280.581 568.444 280.631 568.193 C 280.681 567.942 280.755 567.698 280.853 567.462 C 280.951 567.225 281.071 567.001 281.213 566.788 C 281.355 566.576 281.517 566.378 281.698 566.197 C 281.879 566.016 282.076 565.854 282.289 565.712 C 282.502 565.570 282.726 565.451 282.963 565.352 C 283.199 565.254 283.443 565.180 283.694 565.130 C 283.945 565.081 284.198 565.056 284.454 565.056 C 284.710 565.056 284.964 565.081 285.214 565.130 C 285.466 565.180 285.709 565.254 285.946 565.352 C 286.182 565.451 286.407 565.570 286.620 565.712 C 286.832 565.854 287.029 566.016 287.211 566.197 C 287.391 566.378 287.553 566.576 287.695 566.788 C 287.838 567.001 287.957 567.225 288.055 567.462 C 288.153 567.698 288.227 567.942 288.277 568.193 C 288.327 568.444 288.352 568.697 288.352 568.953 "/><path d="M 279.003 580.460 C 279.175 580.493 280.479 580.888 282.500 580.909 C 284.488 580.924 287.436 580.699 290.070 578.714 C 291.379 577.731 292.583 576.394 293.462 574.780 C 294.366 573.146 294.841 571.135 294.657 569.126 C 294.369 565.096 291.223 561.147 286.939 560.479 C 284.836 560.164 282.657 560.769 281.052 562.030 C 279.461 563.278 278.334 565.151 278.275 567.119 C 278.175 569.065 279.071 570.895 280.393 572.012 C 281.689 573.160 283.494 573.580 284.935 573.158 C 286.407 572.791 287.469 571.756 287.983 570.693 C 288.518 569.604 288.428 568.481 288.114 567.709 C 287.439 566.116 286.340 565.819 286.405 565.791 C 286.342 565.812 287.419 566.178 287.991 567.753 C 288.254 568.513 288.277 569.579 287.732 570.560 C 287.196 571.532 286.163 572.426 284.826 572.690 C 283.501 572.995 281.977 572.556 280.866 571.479 C 279.756 570.439 279.077 568.816 279.248 567.184 C 279.368 565.559 280.410 564.019 281.798 563.035 C 283.194 562.049 285.014 561.654 286.685 561.994 C 288.351 562.310 289.851 563.381 290.896 564.702 C 291.940 566.033 292.509 567.674 292.562 569.262 C 292.720 572.484 290.668 575.179 288.559 576.607 C 285.236 579.081 282.467 579.022 280.950 578.939 C 279.408 578.849 277.338 578.263 277.073 578.555 C 276.636 579.269 277.569 580.016 279.003 580.460 "/><path d="M 236.395 578.454 C 236.521 578.315 237.784 576.078 240.734 573.756 C 243.624 571.392 248.308 569.263 253.300 568.398 C 258.282 567.464 263.439 567.740 267.149 568.640 C 267.149 568.640 273.393 570.050 273.393 570.050 C 273.393 570.050 267.270 568.174 267.270 568.174 C 263.588 566.986 258.332 566.291 253.082 566.877 C 247.832 567.387 242.642 569.254 239.207 571.658 C 235.718 574.007 234.019 576.522 233.882 576.681 C 233.337 577.453 233.552 578.462 234.281 578.880 C 235.025 579.306 235.937 579.094 236.395 578.454 "/><path d="M 236.220 578.844 C 236.466 578.760 240.186 577.058 246.213 577.979 C 252.211 578.752 259.822 581.887 267.421 584.881 C 271.234 586.360 275.096 587.771 278.838 588.679 C 282.573 589.597 286.218 589.949 289.273 589.503 C 292.344 589.095 294.688 587.901 296.140 586.900 C 297.606 585.891 298.291 585.133 298.300 585.149 C 298.291 585.129 297.571 585.858 296.068 586.790 C 294.582 587.715 292.224 588.771 289.220 589.027 C 286.225 589.317 282.701 588.810 279.091 587.740 C 275.470 586.676 271.730 585.111 268.013 583.462 C 260.596 580.142 253.073 576.572 246.636 575.417 C 243.443 574.809 240.590 574.818 238.561 575.129 C 236.522 575.429 235.323 575.914 235.146 575.966 C 233.714 576.498 233.003 577.729 233.435 578.449 C 233.874 579.185 235.077 579.268 236.220 578.844 "/><path d="M 235.512 575.448 C 235.721 575.302 237.052 574.167 239.522 572.754 C 241.977 571.374 245.684 569.678 250.409 569.301 C 252.752 569.108 255.337 569.310 257.895 569.947 C 260.463 570.563 263.051 571.532 265.612 572.699 C 270.746 575.007 275.792 578.129 281.263 580.130 C 283.990 581.125 286.834 581.797 289.673 581.895 C 292.504 582.019 295.299 581.452 297.978 580.904 C 303.336 579.756 308.150 577.951 312.328 576.594 C 316.500 575.202 320.093 574.388 322.643 574.143 C 325.194 573.880 326.656 573.990 326.655 573.972 C 326.656 573.990 325.189 573.916 322.655 574.240 C 320.118 574.547 316.569 575.442 312.443 576.931 C 308.311 578.384 303.528 580.314 298.140 581.609 C 296.795 581.934 295.416 582.228 294.006 582.464 C 292.595 582.721 291.123 582.844 289.648 582.826 C 286.688 582.794 283.713 582.166 280.884 581.210 C 275.208 579.283 270.055 576.259 264.981 574.131 C 259.937 571.953 254.885 570.701 250.580 571.224 C 246.263 571.670 242.874 573.311 240.620 574.648 C 238.355 576.014 237.136 577.095 236.945 577.232 C 235.456 578.418 234.055 579.169 233.585 578.756 C 233.105 578.336 233.895 576.736 235.512 575.448 "/><path d="M 272.655 569.212 C 273.558 569.484 275.069 571.109 275.069 571.109 C 275.069 571.109 273.069 571.117 272.166 570.845 C 271.264 570.578 270.646 569.993 270.780 569.542 C 270.914 569.093 271.753 568.943 272.655 569.212 C 272.655 569.212 276.138 569.321 274.291 568.766 C 272.443 568.211 270.719 568.512 270.443 569.438 C 270.162 570.365 271.437 571.561 273.287 572.121 C 275.134 572.673 279.020 572.333 279.020 572.333 C 279.020 572.333 272.655 569.212 272.655 569.212 Z"/><path d="M 289.214 581.916 C 289.399 581.885 294.030 581.260 298.270 579.490 C 300.391 578.631 302.375 577.453 303.649 576.308 C 304.943 575.176 305.491 574.140 305.502 574.155 C 305.491 574.142 304.946 575.169 303.684 576.344 C 302.440 577.528 300.500 578.811 298.385 579.752 C 296.278 580.714 294.027 581.360 292.288 581.674 C 290.544 581.998 289.319 582.007 289.227 582.015 C 289.227 582.015 288.523 582.019 288.523 582.019 C 288.521 582.022 288.832 581.981 289.214 581.916 "/><path d="M 308.829 578.065 C 310.111 577.873 311.322 577.282 312.239 576.382 C 313.181 575.509 313.796 574.299 313.871 573.019 C 313.958 571.749 313.527 570.453 312.695 569.494 C 311.888 568.522 310.626 567.923 309.365 568.031 C 308.113 568.091 306.896 568.811 306.268 569.903 C 305.639 570.997 305.793 572.477 306.633 573.426 C 307.418 574.441 308.988 574.679 310.027 573.913 C 310.548 573.559 310.942 572.987 310.983 572.343 C 311.042 571.706 310.771 571.048 310.277 570.628 C 310.785 571.032 311.083 571.690 311.044 572.347 C 311.020 573.013 310.631 573.627 310.098 574.012 C 309.563 574.403 308.871 574.574 308.214 574.483 C 307.551 574.400 306.936 574.037 306.509 573.533 C 305.615 572.543 305.429 570.980 306.091 569.805 C 306.745 568.637 308.019 567.866 309.350 567.787 C 310.696 567.689 312.015 568.339 312.850 569.362 C 313.707 570.369 314.138 571.719 314.032 573.031 C 313.943 574.349 313.291 575.598 312.320 576.469 C 311.358 577.357 310.115 577.912 308.829 578.065 "/><path d="M 308.583 578.410 C 309.564 577.669 310.771 577.208 312.019 577.150 C 313.266 577.108 314.521 577.562 315.465 578.381 C 316.419 579.195 317.047 580.378 317.191 581.629 C 317.350 582.884 316.870 584.201 315.949 585.074 C 315.025 585.940 313.688 586.384 312.435 586.079 C 311.193 585.782 310.189 584.702 309.993 583.448 C 309.723 582.188 310.550 580.830 311.774 580.467 C 312.372 580.269 313.058 580.331 313.588 580.670 C 314.123 580.995 314.482 581.576 314.550 582.188 C 314.462 581.578 314.086 581.021 313.559 580.721 C 313.030 580.410 312.379 580.375 311.812 580.582 C 310.652 580.947 309.888 582.235 310.154 583.420 C 310.355 584.610 311.316 585.616 312.485 585.881 C 313.644 586.157 314.931 585.720 315.781 584.897 C 316.660 584.084 317.129 582.849 316.991 581.651 C 316.867 580.453 316.276 579.304 315.362 578.505 C 314.455 577.699 313.243 577.247 312.022 577.271 C 310.802 577.286 309.589 577.699 308.583 578.410 "/><path d="M 185.531 566.464 C 185.531 566.464 175.788 565.736 179.923 560.802 C 181.244 561.929 183.089 562.061 182.524 561.029 C 181.333 558.863 180.890 556.740 183.430 556.420 C 188.755 555.749 184.219 552.781 187.217 552.884 C 190.214 552.987 191.404 554.397 192.654 556.481 C 193.900 558.563 192.956 561.654 194.816 559.916 C 196.679 558.179 199.188 558.508 199.195 561.749 C 199.206 564.990 200.900 568.052 201.580 565.674 C 202.072 563.967 204.733 570.244 209.346 575.539 C 209.910 576.185 203.741 572.900 199.974 570.788 C 195.978 568.545 190.360 566.606 185.531 566.464 "/><path d="M 136.711 572.059 C 136.711 572.179 136.699 572.297 136.676 572.415 C 136.653 572.533 136.618 572.647 136.572 572.757 C 136.526 572.868 136.470 572.973 136.404 573.073 C 136.337 573.173 136.261 573.265 136.176 573.350 C 136.091 573.435 135.999 573.510 135.900 573.577 C 135.800 573.643 135.695 573.699 135.584 573.745 C 135.473 573.791 135.359 573.826 135.241 573.849 C 135.124 573.873 135.005 573.885 134.885 573.885 C 134.766 573.885 134.647 573.873 134.529 573.849 C 134.412 573.826 134.297 573.791 134.187 573.745 C 134.076 573.699 133.971 573.643 133.871 573.577 C 133.771 573.510 133.679 573.435 133.595 573.350 C 133.510 573.265 133.434 573.173 133.367 573.073 C 133.301 572.973 133.245 572.868 133.199 572.757 C 133.153 572.647 133.118 572.533 133.095 572.415 C 133.071 572.297 133.060 572.179 133.060 572.059 C 133.060 571.939 133.071 571.820 133.095 571.703 C 133.118 571.585 133.153 571.471 133.199 571.360 C 133.245 571.249 133.301 571.144 133.367 571.044 C 133.434 570.945 133.510 570.853 133.595 570.768 C 133.679 570.683 133.771 570.607 133.871 570.541 C 133.971 570.474 134.076 570.418 134.187 570.372 C 134.297 570.326 134.412 570.292 134.529 570.268 C 134.647 570.245 134.766 570.233 134.885 570.233 C 135.005 570.233 135.124 570.245 135.241 570.268 C 135.359 570.292 135.473 570.326 135.584 570.372 C 135.695 570.418 135.800 570.474 135.900 570.541 C 135.999 570.607 136.091 570.683 136.176 570.768 C 136.261 570.853 136.337 570.945 136.404 571.044 C 136.470 571.144 136.526 571.249 136.572 571.360 C 136.618 571.471 136.653 571.585 136.676 571.703 C 136.699 571.820 136.711 571.939 136.711 572.059 "/><path d="M 133.199 582.379 C 133.199 582.499 133.187 582.617 133.164 582.735 C 133.140 582.853 133.106 582.967 133.060 583.077 C 133.014 583.188 132.958 583.293 132.891 583.392 C 132.825 583.492 132.749 583.584 132.664 583.669 C 132.580 583.754 132.488 583.829 132.388 583.896 C 132.289 583.962 132.183 584.019 132.073 584.064 C 131.962 584.110 131.848 584.145 131.730 584.168 C 131.613 584.192 131.495 584.203 131.375 584.203 C 131.255 584.203 131.136 584.192 131.019 584.168 C 130.901 584.145 130.787 584.110 130.677 584.064 C 130.566 584.019 130.461 583.962 130.361 583.896 C 130.262 583.829 130.170 583.754 130.085 583.669 C 130.000 583.584 129.925 583.492 129.858 583.392 C 129.791 583.293 129.735 583.188 129.689 583.077 C 129.643 582.967 129.609 582.853 129.586 582.735 C 129.562 582.617 129.550 582.499 129.550 582.379 C 129.550 582.259 129.562 582.140 129.586 582.023 C 129.609 581.906 129.643 581.792 129.689 581.681 C 129.735 581.570 129.791 581.465 129.858 581.365 C 129.925 581.266 130.000 581.174 130.085 581.089 C 130.170 581.004 130.262 580.929 130.361 580.862 C 130.461 580.796 130.566 580.740 130.677 580.694 C 130.787 580.648 130.901 580.613 131.019 580.590 C 131.136 580.567 131.255 580.555 131.375 580.555 C 131.495 580.555 131.613 580.567 131.730 580.590 C 131.848 580.613 131.962 580.648 132.073 580.694 C 132.183 580.740 132.289 580.796 132.388 580.862 C 132.488 580.929 132.580 581.004 132.664 581.089 C 132.749 581.174 132.825 581.266 132.891 581.365 C 132.958 581.465 133.014 581.570 133.060 581.681 C 133.106 581.792 133.140 581.906 133.164 582.023 C 133.187 582.140 133.199 582.259 133.199 582.379 "/><path d="M 116.384 573.798 C 116.439 574.626 115.815 575.345 114.988 575.401 C 114.916 575.404 114.845 575.404 114.776 575.399 C 114.776 575.399 114.502 575.380 114.502 575.380 C 114.502 575.380 114.438 575.647 114.438 575.647 C 114.431 575.677 114.422 575.706 114.414 575.730 C 113.898 575.530 113.339 575.538 112.820 575.749 C 112.477 575.892 112.186 576.112 111.961 576.398 C 111.682 576.138 111.509 575.781 111.481 575.399 C 111.455 574.998 111.583 574.613 111.845 574.312 C 111.845 574.312 112.055 574.066 112.055 574.066 C 112.055 574.066 111.811 573.857 111.811 573.857 C 111.514 573.592 111.333 573.229 111.309 572.832 C 111.288 572.564 111.339 572.301 111.460 572.063 C 111.727 572.307 112.050 572.479 112.404 572.567 C 113.039 572.717 113.696 572.578 114.202 572.194 C 114.202 572.194 114.219 572.225 114.219 572.225 C 114.219 572.225 114.308 572.491 114.308 572.491 C 114.308 572.491 114.587 572.434 114.587 572.434 C 114.652 572.423 114.717 572.410 114.785 572.405 C 115.611 572.352 116.326 572.971 116.384 573.798 "/><path d="M 125.607 576.193 C 126.014 576.667 125.961 577.383 125.486 577.793 C 125.445 577.829 125.405 577.861 125.356 577.884 C 125.356 577.884 125.187 577.997 125.187 577.997 C 125.187 577.997 125.268 578.189 125.268 578.189 C 125.276 578.210 125.284 578.230 125.288 578.251 C 124.890 578.363 124.552 578.619 124.335 578.982 C 124.193 579.225 124.117 579.487 124.110 579.764 C 123.821 579.732 123.556 579.597 123.367 579.379 C 123.170 579.150 123.074 578.859 123.095 578.561 C 123.095 578.561 123.110 578.316 123.110 578.316 C 123.110 578.316 122.870 578.300 122.870 578.300 C 122.570 578.272 122.295 578.135 122.100 577.909 C 121.968 577.754 121.879 577.572 121.841 577.376 C 122.115 577.398 122.389 577.360 122.641 577.250 C 123.092 577.055 123.426 576.674 123.559 576.209 C 123.559 576.209 123.584 576.223 123.584 576.223 C 123.584 576.223 123.757 576.339 123.757 576.339 C 123.757 576.339 123.901 576.179 123.901 576.179 C 123.936 576.143 123.969 576.110 124.004 576.076 C 124.477 575.663 125.199 575.719 125.607 576.193 "/><path d="M 126.059 573.830 C 126.529 573.414 126.575 572.697 126.158 572.227 C 126.125 572.186 126.085 572.153 126.041 572.119 C 126.041 572.119 125.886 571.983 125.886 571.983 C 125.886 571.983 125.991 571.804 125.991 571.804 C 126.004 571.788 126.014 571.765 126.023 571.747 C 125.642 571.582 125.341 571.283 125.176 570.892 C 125.069 570.635 125.029 570.365 125.058 570.089 C 124.769 570.080 124.488 570.179 124.273 570.371 C 124.046 570.569 123.912 570.845 123.893 571.144 C 123.893 571.144 123.874 571.389 123.874 571.389 C 123.874 571.389 123.630 571.375 123.630 571.375 C 123.334 571.360 123.043 571.458 122.820 571.658 C 122.667 571.791 122.555 571.960 122.490 572.153 C 122.764 572.166 123.028 572.240 123.269 572.381 C 123.686 572.638 123.968 573.058 124.036 573.538 C 124.036 573.538 124.063 573.528 124.063 573.528 C 124.063 573.528 124.255 573.432 124.255 573.432 C 124.255 573.432 124.371 573.609 124.371 573.609 C 124.400 573.650 124.430 573.691 124.462 573.730 C 124.871 574.201 125.594 574.243 126.059 573.830 "/><path d="M 121.936 575.494 C 122.202 575.926 122.072 576.490 121.640 576.760 C 121.604 576.784 121.567 576.802 121.526 576.817 C 121.526 576.817 121.377 576.885 121.377 576.885 C 121.377 576.885 121.414 577.050 121.414 577.050 C 121.419 577.069 121.420 577.085 121.427 577.102 C 121.091 577.142 120.790 577.304 120.570 577.567 C 120.428 577.744 120.334 577.945 120.292 578.165 C 120.067 578.106 119.871 577.962 119.748 577.764 C 119.618 577.555 119.578 577.312 119.632 577.076 C 119.632 577.076 119.675 576.881 119.675 576.881 C 119.675 576.881 119.483 576.839 119.483 576.839 C 119.247 576.781 119.044 576.636 118.917 576.430 C 118.828 576.291 118.778 576.135 118.777 575.970 C 118.991 576.023 119.217 576.028 119.431 575.972 C 119.817 575.870 120.132 575.606 120.298 575.252 C 120.298 575.252 120.313 575.265 120.313 575.265 C 120.313 575.265 120.437 575.382 120.437 575.382 C 120.437 575.382 120.575 575.271 120.575 575.271 C 120.605 575.246 120.640 575.223 120.670 575.199 C 121.100 574.931 121.668 575.064 121.936 575.494 "/><path d="M 121.874 573.027 C 122.242 572.678 122.257 572.094 121.907 571.727 C 121.877 571.691 121.847 571.664 121.812 571.640 C 121.812 571.640 121.684 571.534 121.684 571.534 C 121.684 571.534 121.762 571.386 121.762 571.386 C 121.771 571.372 121.779 571.355 121.786 571.339 C 121.475 571.218 121.221 570.985 121.077 570.672 C 120.983 570.466 120.944 570.250 120.959 570.026 C 120.725 570.026 120.501 570.117 120.329 570.276 C 120.152 570.443 120.052 570.672 120.044 570.912 C 120.044 570.912 120.034 571.112 120.034 571.112 C 120.034 571.112 119.838 571.107 119.838 571.107 C 119.596 571.104 119.363 571.192 119.188 571.360 C 119.068 571.473 118.979 571.615 118.937 571.768 C 119.159 571.773 119.375 571.824 119.571 571.933 C 119.918 572.128 120.156 572.461 120.227 572.847 C 120.227 572.847 120.248 572.839 120.248 572.839 C 120.248 572.839 120.398 572.756 120.398 572.756 C 120.398 572.756 120.499 572.895 120.499 572.895 C 120.522 572.927 120.549 572.959 120.575 572.990 C 120.920 573.360 121.507 573.373 121.874 573.027 "/><path d="M 118.016 575.119 C 118.314 575.465 118.276 575.988 117.931 576.287 C 117.899 576.312 117.868 576.336 117.836 576.353 C 117.836 576.353 117.710 576.435 117.710 576.435 C 117.710 576.435 117.769 576.576 117.769 576.576 C 117.775 576.589 117.778 576.607 117.786 576.620 C 117.495 576.701 117.247 576.888 117.090 577.154 C 116.987 577.331 116.930 577.524 116.925 577.727 C 116.715 577.701 116.521 577.602 116.384 577.444 C 116.240 577.276 116.169 577.065 116.186 576.846 C 116.186 576.846 116.198 576.667 116.198 576.667 C 116.198 576.667 116.018 576.657 116.018 576.657 C 115.798 576.636 115.600 576.536 115.455 576.372 C 115.360 576.259 115.295 576.126 115.269 575.982 C 115.468 575.999 115.670 575.970 115.851 575.892 C 116.182 575.749 116.426 575.471 116.521 575.134 C 116.521 575.134 116.541 575.141 116.541 575.141 C 116.541 575.141 116.666 575.228 116.666 575.228 C 116.666 575.228 116.771 575.111 116.771 575.111 C 116.796 575.084 116.819 575.058 116.848 575.034 C 117.193 574.733 117.718 574.772 118.016 575.119 "/><path d="M 118.241 572.668 C 118.520 572.307 118.453 571.787 118.090 571.507 C 118.059 571.481 118.028 571.461 117.993 571.445 C 117.993 571.445 117.863 571.367 117.863 571.367 C 117.863 571.367 117.913 571.227 117.913 571.227 C 117.919 571.214 117.923 571.195 117.931 571.180 C 117.634 571.113 117.376 570.942 117.205 570.684 C 117.091 570.514 117.027 570.326 117.011 570.124 C 116.801 570.158 116.611 570.268 116.484 570.433 C 116.347 570.608 116.290 570.824 116.317 571.039 C 116.317 571.039 116.340 571.218 116.340 571.218 C 116.340 571.218 116.164 571.240 116.164 571.240 C 115.945 571.272 115.751 571.381 115.617 571.556 C 115.527 571.674 115.470 571.809 115.454 571.956 C 115.650 571.927 115.853 571.944 116.040 572.013 C 116.378 572.140 116.636 572.402 116.750 572.737 C 116.750 572.737 116.769 572.724 116.769 572.724 C 116.769 572.724 116.892 572.632 116.892 572.632 C 116.892 572.632 117.002 572.741 117.002 572.741 C 117.028 572.767 117.052 572.791 117.081 572.813 C 117.438 573.096 117.963 573.027 118.241 572.668 "/><path d="M 142.663 574.110 C 143.371 575.176 145.417 575.314 146.151 576.122 C 146.833 576.879 147.027 577.826 146.624 578.321 C 146.765 578.074 146.661 577.654 146.357 577.317 C 146.009 576.932 145.027 576.866 144.691 576.354 C 144.604 576.417 145.129 577.727 145.479 578.110 C 145.826 578.498 146.305 578.634 146.549 578.416 C 146.042 578.873 145.038 578.592 144.309 577.785 C 143.581 576.977 142.482 574.234 142.663 574.110 "/><path d="M 163.585 568.953 C 163.585 569.210 163.560 569.464 163.510 569.714 C 163.460 569.965 163.386 570.209 163.288 570.445 C 163.190 570.681 163.070 570.906 162.928 571.119 C 162.786 571.332 162.624 571.529 162.443 571.710 C 162.262 571.891 162.065 572.052 161.852 572.194 C 161.640 572.337 161.415 572.457 161.179 572.554 C 160.942 572.653 160.698 572.727 160.447 572.776 C 160.196 572.826 159.943 572.852 159.687 572.852 C 159.431 572.852 159.177 572.826 158.927 572.776 C 158.675 572.727 158.432 572.653 158.195 572.554 C 157.959 572.457 157.734 572.337 157.521 572.194 C 157.309 572.052 157.112 571.891 156.931 571.710 C 156.750 571.529 156.588 571.332 156.446 571.119 C 156.304 570.906 156.184 570.681 156.086 570.445 C 155.988 570.209 155.914 569.965 155.864 569.714 C 155.814 569.464 155.789 569.210 155.789 568.953 C 155.789 568.697 155.814 568.444 155.864 568.193 C 155.914 567.942 155.988 567.698 156.086 567.462 C 156.184 567.225 156.304 567.001 156.446 566.788 C 156.588 566.576 156.750 566.378 156.931 566.197 C 157.112 566.016 157.309 565.854 157.521 565.712 C 157.734 565.570 157.959 565.451 158.195 565.352 C 158.432 565.254 158.675 565.180 158.927 565.130 C 159.177 565.081 159.431 565.056 159.687 565.056 C 159.943 565.056 160.196 565.081 160.447 565.130 C 160.698 565.180 160.942 565.254 161.179 565.352 C 161.415 565.451 161.640 565.570 161.852 565.712 C 162.065 565.854 162.262 566.016 162.443 566.197 C 162.624 566.378 162.786 566.576 162.928 566.788 C 163.070 567.001 163.190 567.225 163.288 567.462 C 163.386 567.698 163.460 567.942 163.510 568.193 C 163.560 568.444 163.585 568.697 163.585 568.953 "/><path d="M 165.138 580.460 C 164.966 580.493 163.662 580.888 161.641 580.909 C 159.654 580.924 156.707 580.699 154.071 578.714 C 152.763 577.731 151.558 576.394 150.680 574.780 C 149.773 573.146 149.300 571.135 149.485 569.126 C 149.772 565.096 152.920 561.147 157.202 560.479 C 159.306 560.164 161.484 560.769 163.089 562.030 C 164.680 563.278 165.807 565.151 165.866 567.119 C 165.964 569.065 165.070 570.895 163.748 572.012 C 162.454 573.160 160.647 573.580 159.206 573.158 C 157.734 572.791 156.672 571.756 156.158 570.693 C 155.623 569.604 155.713 568.481 156.027 567.709 C 156.703 566.116 157.801 565.819 157.736 565.791 C 157.799 565.812 156.721 566.178 156.150 567.753 C 155.888 568.513 155.865 569.579 156.409 570.560 C 156.945 571.532 157.976 572.426 159.315 572.690 C 160.640 572.995 162.164 572.556 163.273 571.479 C 164.385 570.439 165.064 568.816 164.893 567.184 C 164.774 565.559 163.732 564.019 162.343 563.035 C 160.947 562.049 159.127 561.654 157.454 561.994 C 155.789 562.310 154.287 563.381 153.243 564.702 C 152.200 566.033 151.631 567.674 151.578 569.262 C 151.421 572.484 153.472 575.179 155.580 576.607 C 158.904 579.081 161.673 579.022 163.190 578.939 C 164.731 578.849 166.800 578.263 167.067 578.555 C 167.507 579.269 166.572 580.016 165.138 580.460 "/><path d="M 207.746 578.454 C 207.620 578.315 206.357 576.078 203.408 573.756 C 200.517 571.392 195.833 569.263 190.841 568.398 C 185.859 567.464 180.703 567.740 176.992 568.640 C 176.992 568.640 170.748 570.050 170.748 570.050 C 170.748 570.050 176.871 568.174 176.871 568.174 C 180.553 566.986 185.809 566.291 191.059 566.877 C 196.309 567.387 201.499 569.254 204.934 571.658 C 208.423 574.007 210.122 576.522 210.258 576.681 C 210.803 577.453 210.586 578.462 209.861 578.880 C 209.116 579.306 208.204 579.094 207.746 578.454 "/><path d="M 207.921 578.844 C 207.675 578.760 203.955 577.058 197.928 577.979 C 191.930 578.752 184.319 581.887 176.720 584.881 C 172.905 586.360 169.045 587.771 165.303 588.679 C 161.569 589.597 157.923 589.949 154.868 589.503 C 151.797 589.095 149.453 587.901 148.001 586.900 C 146.535 585.891 145.850 585.133 145.841 585.149 C 145.850 585.129 146.570 585.858 148.073 586.790 C 149.559 587.715 151.917 588.771 154.921 589.027 C 157.917 589.317 161.440 588.810 165.050 587.740 C 168.671 586.676 172.411 585.111 176.129 583.462 C 183.545 580.142 191.068 576.572 197.506 575.417 C 200.699 574.809 203.552 574.818 205.580 575.129 C 207.619 575.429 208.818 575.914 208.995 575.966 C 210.428 576.498 211.139 577.729 210.706 578.449 C 210.267 579.185 209.063 579.268 207.921 578.844 "/><path d="M 208.629 575.448 C 208.420 575.302 207.089 574.167 204.619 572.754 C 202.164 571.374 198.457 569.678 193.732 569.301 C 191.389 569.108 188.804 569.310 186.248 569.947 C 183.678 570.563 181.090 571.532 178.529 572.699 C 173.395 575.007 168.351 578.129 162.879 580.130 C 160.151 581.125 157.306 581.797 154.469 581.895 C 151.637 582.019 148.842 581.452 146.163 580.904 C 140.805 579.756 135.991 577.951 131.813 576.594 C 127.642 575.202 124.048 574.388 121.498 574.143 C 118.947 573.880 117.483 573.990 117.486 573.972 C 117.483 573.990 118.952 573.916 121.487 574.240 C 124.025 574.547 127.573 575.442 131.700 576.931 C 135.834 578.384 140.615 580.314 146.003 581.609 C 147.347 581.934 148.729 582.228 150.134 582.464 C 151.546 582.721 153.016 582.844 154.493 582.826 C 157.453 582.794 160.428 582.166 163.257 581.210 C 168.933 579.283 174.087 576.259 179.160 574.131 C 184.204 571.953 189.256 570.701 193.561 571.224 C 197.879 571.670 201.268 573.311 203.523 574.648 C 205.787 576.014 207.006 577.095 207.198 577.232 C 208.688 578.418 210.087 579.169 210.558 578.756 C 211.036 578.336 210.246 576.736 208.629 575.448 "/><path d="M 173.361 569.540 C 173.495 569.991 172.877 570.576 171.975 570.844 C 171.072 571.117 169.072 571.107 169.072 571.107 C 169.072 571.107 170.584 569.481 171.486 569.211 C 172.388 568.943 173.229 569.093 173.361 569.540 C 173.361 569.540 165.121 572.333 165.121 572.333 C 165.121 572.333 169.007 572.673 170.854 572.121 C 172.704 571.561 173.978 570.365 173.698 569.438 C 173.423 568.512 171.698 568.211 169.850 568.766 C 168.003 569.321 173.361 569.540 173.361 569.540 Z"/><path d="M 154.927 581.916 C 154.742 581.885 150.111 581.260 145.871 579.490 C 143.750 578.631 141.766 577.453 140.493 576.308 C 139.196 575.176 138.650 574.140 138.639 574.155 C 138.650 574.142 139.195 575.169 140.458 576.344 C 141.701 577.528 143.641 578.811 145.756 579.752 C 147.862 580.714 150.114 581.360 151.854 581.674 C 153.597 581.998 154.823 582.007 154.915 582.015 C 154.915 582.015 155.618 582.019 155.618 582.019 C 155.620 582.022 155.309 581.981 154.927 581.916 "/><path d="M 135.312 578.065 C 134.031 577.873 132.819 577.282 131.903 576.382 C 130.959 575.509 130.345 574.299 130.270 573.019 C 130.183 571.749 130.613 570.453 131.446 569.494 C 132.254 568.522 133.515 567.923 134.778 568.031 C 136.029 568.091 137.245 568.811 137.873 569.903 C 138.502 570.997 138.349 572.477 137.508 573.426 C 136.725 574.441 135.153 574.679 134.114 573.913 C 133.594 573.559 133.197 572.987 133.158 572.343 C 133.099 571.706 133.370 571.048 133.863 570.628 C 133.356 571.032 133.058 571.690 133.098 572.347 C 133.122 573.013 133.511 573.627 134.043 574.012 C 134.577 574.403 135.270 574.574 135.927 574.483 C 136.590 574.400 137.205 574.037 137.632 573.533 C 138.526 572.543 138.712 570.980 138.050 569.805 C 137.396 568.637 136.123 567.866 134.791 567.787 C 133.445 567.689 132.127 568.339 131.293 569.362 C 130.436 570.369 130.004 571.719 130.109 573.031 C 130.199 574.349 130.851 575.598 131.822 576.469 C 132.783 577.357 134.028 577.912 135.312 578.065 "/><path d="M 135.559 578.410 C 134.577 577.669 133.370 577.208 132.123 577.150 C 130.875 577.108 129.621 577.562 128.676 578.381 C 127.722 579.195 127.094 580.378 126.950 581.629 C 126.793 582.884 127.271 584.201 128.192 585.074 C 129.116 585.940 130.454 586.384 131.706 586.079 C 132.948 585.782 133.952 584.702 134.149 583.448 C 134.418 582.188 133.589 580.830 132.367 580.467 C 131.771 580.269 131.083 580.331 130.554 580.670 C 130.018 580.995 129.659 581.576 129.591 582.188 C 129.679 581.578 130.056 581.021 130.582 580.721 C 131.111 580.410 131.762 580.375 132.329 580.582 C 133.489 580.947 134.253 582.235 133.987 583.420 C 133.786 584.610 132.824 585.616 131.656 585.881 C 130.497 586.157 129.210 585.720 128.360 584.897 C 127.481 584.084 127.013 582.849 127.150 581.651 C 127.274 580.453 127.866 579.304 128.779 578.505 C 129.687 577.699 130.898 577.247 132.117 577.271 C 133.339 577.286 134.553 577.699 135.559 578.410 "/><path d="M 213.303 563.303 C 214.545 562.548 215.334 561.188 215.386 559.736 C 215.436 558.317 214.759 557.269 213.902 556.218 C 214.130 555.954 214.363 555.697 214.582 555.428 C 212.347 553.940 211.313 551.099 212.066 548.519 C 209.806 548.026 207.496 549.461 206.944 551.706 C 206.944 551.706 206.714 552.610 206.714 552.610 C 206.714 552.610 205.810 552.395 205.810 552.395 C 203.922 551.942 201.903 552.835 200.982 554.546 C 203.872 555.201 205.956 557.859 205.866 560.826 C 206.157 560.745 206.451 560.662 206.741 560.578 C 207.254 561.740 207.817 562.774 208.982 563.405 C 210.326 564.133 211.993 564.095 213.303 563.303 "/><path d="M 232.566 550.786 C 232.196 552.640 231.029 554.194 229.404 555.067 C 229.621 555.281 229.832 555.490 230.058 555.703 C 229.354 556.661 228.743 557.591 228.716 558.824 C 228.681 560.349 229.475 561.820 230.771 562.626 C 232.071 563.440 233.750 563.490 235.105 562.772 C 236.367 562.103 236.922 560.991 237.409 559.721 C 237.749 559.789 238.091 559.866 238.434 559.914 C 238.605 557.238 240.550 554.911 243.161 554.281 C 242.455 552.084 240.062 550.794 237.840 551.439 C 237.840 551.439 236.938 551.697 236.938 551.697 C 236.938 551.697 236.672 550.804 236.672 550.804 C 236.120 548.951 234.344 547.631 232.395 547.696 C 232.705 548.694 232.776 549.753 232.566 550.786 "/><path d="M 215.165 554.462 C 215.552 554.572 215.944 554.661 216.336 554.758 C 216.159 556.432 216.115 557.987 217.038 559.482 C 218.099 561.206 220.031 562.271 222.053 562.227 C 224.082 562.182 225.978 561.035 226.961 559.264 C 227.821 557.722 227.700 556.163 227.426 554.495 C 227.863 554.349 228.306 554.217 228.731 554.047 C 227.154 550.862 227.848 546.908 230.418 544.453 C 228.152 542.403 224.557 542.508 222.442 544.724 C 222.442 544.724 221.577 545.608 221.577 545.608 C 221.577 545.608 220.681 544.760 220.681 544.760 C 218.816 542.995 215.909 542.676 213.718 544.031 C 216.604 546.688 217.230 551.122 215.165 554.462 "/></g></svg>